# xmcd
#
# Track frame offsets:
#	150
#	11315
#	21747
#	36905
#	51537
#	67952
#	82817
#	104637
#	119395
#	133012
#	148605
#	160902
#	175810
#	197427
#	211737
#	226720
#	240155
#	253202
#	266612
#	280292
#	298635
#	311882
#
# Disc length: 4338 seconds
#
# Revision: 1
# Processed by: cddbd v1.5.2PL0 Copyright (c) Steve Scherf et al.
# Submitted via: audiograbber 1.83.01
#
DISCID=3e10f016
DTITLE=Capitol Records - Country Hits Of The 80's v.2
DYEAR=1990
DGENRE=Country
TTITLE0=Janie Fricke - Don't Worry 'Bout Me Baby
TTITLE1=Ricky Skaggs - I Don't Care
TTITLE2=Mickey Gilley - Put Your Dreams Away
TTITLE3=Merle Haggard and George Jones - Yesterday's Wine
TTITLE4=Janie Fricke - It Ain't Easy Bein' Easy
TTITLE5=Ricky Skaggs - Heartbroke
TTITLE6=Merle Haggard - Going Where The Lonely Go
TTITLE7=Mickey Gilley - Talk To Me
TTITLE8=Ricky Skaggs - I Wouldn't Change You If I Could
TTITLE9=B.J. Thomas - Whatever Happened To Old Fashioned Love
TTITLE10=Merle Haggard - You Take Me For Granted
TTITLE11=Mickey Gilley - Fool For Your Love
TTITLE12=Merle Haggard and Willie Nelson - Pancho and Lefty
TTITLE13=Ricky Skaggs - Highway 40 Blues
TTITLE14=George Jones - I Always Get Lucky With You
TTITLE15=Janie Fricke - He's  A Heartache (Looking For A Place To Happen)
TTITLE16=Ronnie McDowell - You're Gonna Ruin My Bad Reputation
TTITLE17=B.J. Thomas - New Looks From An Old Lover
TTITLE18=Charly McClain and Mickey Gilley - Paradise Tonight
TTITLE19=Janie Fricke - Tell Me A Lie
TTITLE20=Larry Gatlin and Gatlin Brothers - Houston (Means That I'm One Day Close
TTITLE20=r To You)
TTITLE21=Merle Haggard - That's The Way Love Goes
EXTD=
EXTT0=
EXTT1=
EXTT2=
EXTT3=
EXTT4=
EXTT5=
EXTT6=
EXTT7=
EXTT8=
EXTT9=
EXTT10=
EXTT11=
EXTT12=
EXTT13=
EXTT14=
EXTT15=
EXTT16=
EXTT17=
EXTT18=
EXTT19=
EXTT20=
EXTT21=
PLAYORDER=
